<?xml version="1.0" encoding="utf-8"?>
<!-- Generator: Adobe Illustrator 25.4.1, SVG Export Plug-In . SVG Version: 6.00 Build 0)  -->
<svg version="1.1" id="Ebene_1" xmlns="http://www.w3.org/2000/svg" xmlns:xlink="http://www.w3.org/1999/xlink" x="0px" y="0px"
	 viewBox="0 0 1000 975" style="enable-background:new 0 0 1000 975;" xml:space="preserve">
<style type="text/css">
	.st0{fill-rule:evenodd;clip-rule:evenodd;fill:#221E1B;}
</style>
<path class="st0" d="M500.17-0.27C224.19-0.27,0.4,223.5,0.4,499.56c0,220.8,143.19,408.13,341.82,474.23
	c24.99,4.58,34.11-10.85,34.11-24.09c0-11.86-0.43-43.3-0.67-85.01c-139.03,30.2-168.36-67-168.36-67
	c-22.73-57.74-55.49-73.11-55.49-73.11c-45.38-31.01,3.43-30.38,3.43-30.38c50.16,3.53,76.56,51.51,76.56,51.51
	c44.58,76.38,116.98,54.32,145.46,41.53c4.54-32.3,17.45-54.32,31.73-66.82c-110.98-12.61-227.66-55.49-227.66-247.02
	c0-54.56,19.47-99.18,51.45-134.12c-5.14-12.64-22.29-63.46,4.9-132.27c0,0,41.96-13.44,137.44,51.24
	c39.87-11.09,82.62-16.63,125.13-16.82c42.44,0.19,85.2,5.74,125.13,16.82c95.42-64.68,137.31-51.24,137.31-51.24
	c27.27,68.81,10.11,119.63,4.97,132.27c32.03,34.94,51.37,79.55,51.37,134.12c0,192-116.86,234.25-228.2,246.63
	c17.95,15.43,33.93,45.93,33.93,92.56c0,66.82-0.61,120.72-0.61,137.11c0,13.37,9,28.92,34.37,24.03
	C856.92,907.51,1000,720.3,1000,499.56C1000,223.5,776.2-0.27,500.17-0.27z"/>
</svg>
