<?xml version="1.0" encoding="utf-8"?>
<!-- Generator: Adobe Illustrator 25.4.1, SVG Export Plug-In . SVG Version: 6.00 Build 0)  -->
<svg version="1.1" id="Ebene_1" xmlns:serif="http://www.serif.com/"
	 xmlns="http://www.w3.org/2000/svg" xmlns:xlink="http://www.w3.org/1999/xlink" x="0px" y="0px" viewBox="0 0 1000 850.66"
	 style="enable-background:new 0 0 1000 850.66;" xml:space="preserve">
<path d="M949.79,796.89l1.21-0.17c0.04,0,0.08,0,0.15,0c8.58,0,15.64-7.06,15.64-15.64c0-0.3,0-0.6-0.04-0.9
	c0-11.73-7.07-17.34-21.61-17.34h-23.46v61.43h8.84v-26.78h10.84l0.23,0.32l16.85,26.46h9.45L949.79,796.89z M940.72,790.56h-10.2
	V769.8h13c6.69,0,14.32,1.09,14.32,9.87C957.83,789.76,950.13,790.56,940.72,790.56z"/>
<path d="M783.13,0.01v0.05H63.33C29.54-0.32,1.41,27.15,1,60.94v722.79c0.4,33.81,28.52,61.31,62.33,60.95h719.8
	c33.89,0.43,62.11-27.07,62.57-60.95V60.89C845.24,27.03,816.98-0.44,783.13,0.01z M251.52,719.73H126.23V316.65h125.29V719.73z
	 M261.55,188.92c0,39.84-32.78,72.62-72.62,72.63c-0.01,0-0.01,0-0.02,0c-39.84,0-72.63-32.78-72.63-72.63
	c0-39.85,32.79-72.63,72.63-72.63c39.84,0,72.63,32.78,72.63,72.62C261.55,188.91,261.55,188.91,261.55,188.92z M720.74,719.73
	H595.58V523.72c0-46.74-0.84-106.91-65.1-106.91c-65.19,0-75.16,50.92-75.16,103.5v199.4H330.16V316.65h120.15v55.08H452
	c24.46-41.83,70.12-66.9,118.55-65.11c126.85,0,150.24,83.44,150.24,191.99L720.74,719.73z"/>
<path d="M942.95,735.47h-1.1c-31.4,0.3-57.05,26.21-57.05,57.6c0,31.6,25.99,57.6,57.58,57.6c31.62,0,57.62-26,57.62-57.6
	C1000,761.67,974.35,735.77,942.95,735.47z M944.57,843.54h-1.32v0.03c-0.3,0-0.57,0.01-0.87,0.01c-27.69,0-50.48-22.8-50.48-50.51
	c0-27.71,22.78-50.51,50.48-50.51c27.39,0,50.06,22.28,50.51,49.66v0.85C993.46,820.17,971.66,842.95,944.57,843.54z"/>
</svg>
